<svg viewBox="-0.5 -0.5 16 16" fill="none" xmlns="http://www.w3.org/2000/svg" id="Bill--Streamline-Solar-Broken" height="24" width="">
  <desc>
    Bill Streamline Icon: https://streamlinehq.com
  </desc>
  <path d="M13.125 3.75V2.1907437499999998c0 -0.36451875 -0.4306875 -0.557925 -0.703125 -0.31575 -0.40099999999999997 0.3564375 -1.00525 0.3564375 -1.40625 0s-1.00525 -0.3564375 -1.40625 0 -1.00525 0.3564375 -1.40625 0 -1.00525 -0.3564375 -1.40625 0 -1.00525625 0.3564375 -1.40625 0c-0.40099375 -0.3564375 -1.00525625 -0.3564375 -1.40625 0 -0.40099375 0.3564375 -1.00525625 0.3564375 -1.40625 0C2.30568125 1.63281875 1.875 1.826225 1.875 2.1907437499999998V8.75m11.25 -2.5v6.559374999999999c0 0.36450000000000005 -0.4306875 0.557875 -0.703125 0.31575 -0.40099999999999997 -0.3564375 -1.00525 -0.3564375 -1.40625 0s-1.00525 0.3564375 -1.40625 0 -1.00525 -0.3564375 -1.40625 0 -1.00525 0.3564375 -1.40625 0 -1.00525625 -0.3564375 -1.40625 0c-0.40099375 0.3564375 -1.00525625 0.3564375 -1.40625 0 -0.40099375 -0.3564375 -1.00525625 -0.3564375 -1.40625 0 -0.27244375 0.242125 -0.703125 0.04875 -0.703125 -0.31575V11.25" stroke="#fff" stroke-linecap="round" stroke-width="1"></path>
  <path d="M4.6875 9.6875h2.5m3.125 0h-1.25" stroke="#fff" stroke-linecap="round" stroke-width="1"></path>
  <path d="M10.3125 7.5h-2.5m-3.125 0h1.25" stroke="#fff" stroke-linecap="round" stroke-width="1"></path>
  <path d="M4.6875 5.3125h5.625" stroke="#fff" stroke-linecap="round" stroke-width="1"></path>
</svg>